<svg xmlns="http://www.w3.org/2000/svg" xmlns:xlink="http://www.w3.org/1999/xlink" xmlns:s="https://github.com/nturley/netlistsvg" width="579" height="249">
  <style>svg {
    stroke:#000;
    fill:none;
  }
  text {
    fill:#000;
    stroke:none;
    font-size:10px;
    font-weight: bold;
    font-family: "Courier New", monospace;
  }
  .nodelabel {
    text-anchor: middle;
  }
  .inputPortLabel {
    text-anchor: end;
  }
  .splitjoinBody {
    fill:#000;
  }</style>
  <g s:type="generic" transform="translate(394,86.5)" s:width="30" s:height="40" id="cell_mypattern_gen">
    <text x="15" y="-4" class="nodelabel cell_mypattern_gen" s:attribute="ref">pattern_gen</text>
    <rect width="30" height="60" s:generic="body" class="cell_mypattern_gen"/>
    <g transform="translate(0,10)" s:x="0" s:y="10" s:pid="in0" id="port_mypattern_gen~col">
      <text x="-3" y="-4" class="inputPortLabel cell_mypattern_gen">col</text>
    </g>
    <g transform="translate(0,30)" s:x="0" s:y="10" s:pid="in0" id="port_mypattern_gen~row">
      <text x="-3" y="-4" class="inputPortLabel cell_mypattern_gen">row</text>
    </g>
    <g transform="translate(0,50)" s:x="0" s:y="10" s:pid="in0" id="port_mypattern_gen~valid">
      <text x="-3" y="-4" class="inputPortLabel cell_mypattern_gen">valid</text>
    </g>
    <g transform="translate(30,10)" s:x="30" s:y="10" s:pid="out0" id="port_mypattern_gen~rgb">
      <text x="5" y="-4" style="fill:#000; stroke:none" class="cell_mypattern_gen">rgb</text>
    </g>
  </g>
  <g s:type="generic" transform="translate(120,46.5)" s:width="30" s:height="40" id="cell_mypll">
    <text x="15" y="-4" class="nodelabel cell_mypll" s:attribute="ref">pll</text>
    <rect width="30" height="60" s:generic="body" class="cell_mypll"/>
    <g transform="translate(0,10)" s:x="0" s:y="10" s:pid="in0" id="port_mypll~clk_in">
      <text x="-3" y="-4" class="inputPortLabel cell_mypll">clk_in</text>
    </g>
    <g transform="translate(30,10)" s:x="30" s:y="10" s:pid="out0" id="port_mypll~clk_locked">
      <text x="5" y="-4" style="fill:#000; stroke:none" class="cell_mypll">clk_locked</text>
    </g>
    <g transform="translate(30,30)" s:x="30" s:y="10" s:pid="out0" id="port_mypll~clk_out">
      <text x="5" y="-4" style="fill:#000; stroke:none" class="cell_mypll">clk_out</text>
    </g>
    <g transform="translate(30,50)" s:x="30" s:y="10" s:pid="out0" id="port_mypll~pll_output">
      <text x="5" y="-4" style="fill:#000; stroke:none" class="cell_mypll">pll_output</text>
    </g>
  </g>
  <g s:type="generic" transform="translate(266,66.5)" s:width="30" s:height="40" id="cell_myvga">
    <text x="15" y="-4" class="nodelabel cell_myvga" s:attribute="ref">vga</text>
    <rect width="30" height="100" s:generic="body" class="cell_myvga"/>
    <g transform="translate(0,10)" s:x="0" s:y="10" s:pid="in0" id="port_myvga~clk">
      <text x="-3" y="-4" class="inputPortLabel cell_myvga">clk</text>
    </g>
    <g transform="translate(30,10)" s:x="30" s:y="10" s:pid="out0" id="port_myvga~col">
      <text x="5" y="-4" style="fill:#000; stroke:none" class="cell_myvga">col</text>
    </g>
    <g transform="translate(30,30)" s:x="30" s:y="10" s:pid="out0" id="port_myvga~hsync">
      <text x="5" y="-4" style="fill:#000; stroke:none" class="cell_myvga">hsync</text>
    </g>
    <g transform="translate(30,50)" s:x="30" s:y="10" s:pid="out0" id="port_myvga~row">
      <text x="5" y="-4" style="fill:#000; stroke:none" class="cell_myvga">row</text>
    </g>
    <g transform="translate(30,70)" s:x="30" s:y="10" s:pid="out0" id="port_myvga~valid">
      <text x="5" y="-4" style="fill:#000; stroke:none" class="cell_myvga">valid</text>
    </g>
    <g transform="translate(30,90)" s:x="30" s:y="10" s:pid="out0" id="port_myvga~vsync">
      <text x="5" y="-4" style="fill:#000; stroke:none" class="cell_myvga">vsync</text>
    </g>
  </g>
  <g s:type="inputExt" transform="translate(12,47)" s:width="30" s:height="20" id="cell_clk_in">
    <text x="15" y="-4" class="nodelabel cell_clk_in" s:attribute="ref">clk_in</text>
    <s:alias val="$_inputExt_"/>
    <path d="M0,0 L0,20 L15,20 L30,10 L15,0 Z" class="cell_clk_in"/>
    <g s:x="28" s:y="10" s:pid="Y"/>
  </g>
  <g s:type="outputExt" transform="translate(507,87)" s:width="30" s:height="20" id="cell_RGB">
    <text x="15" y="-4" class="nodelabel cell_RGB" s:attribute="ref">RGB</text>
    <s:alias val="$_outputExt_"/>
    <path d="M30,0 L30,20 L15,20 L0,10 L15,0 Z" class="cell_RGB"/>
    <g s:x="0" s:y="10" s:pid="A"/>
  </g>
  <g s:type="outputExt" transform="translate(507,22)" s:width="30" s:height="20" id="cell_HSYNC">
    <text x="15" y="-4" class="nodelabel cell_HSYNC" s:attribute="ref">HSYNC</text>
    <s:alias val="$_outputExt_"/>
    <path d="M30,0 L30,20 L15,20 L0,10 L15,0 Z" class="cell_HSYNC"/>
    <g s:x="0" s:y="10" s:pid="A"/>
  </g>
  <g s:type="outputExt" transform="translate(507,152)" s:width="30" s:height="20" id="cell_VSYNC">
    <text x="15" y="-4" class="nodelabel cell_VSYNC" s:attribute="ref">VSYNC</text>
    <s:alias val="$_outputExt_"/>
    <path d="M30,0 L30,20 L15,20 L0,10 L15,0 Z" class="cell_VSYNC"/>
    <g s:x="0" s:y="10" s:pid="A"/>
  </g>
  <g s:type="outputExt" transform="translate(507,217)" s:width="30" s:height="20" id="cell_PLL_output">
    <text x="15" y="-4" class="nodelabel cell_PLL_output" s:attribute="ref">PLL_output</text>
    <s:alias val="$_outputExt_"/>
    <path d="M30,0 L30,20 L15,20 L0,10 L15,0 Z" class="cell_PLL_output"/>
    <g s:x="0" s:y="10" s:pid="A"/>
  </g>
  <line x1="297" x2="348" y1="77" y2="77" class="net_12,13,14,15,16,17,18,19,20,21"/>
  <line x1="348" x2="348" y1="77" y2="97" class="net_12,13,14,15,16,17,18,19,20,21"/>
  <line x1="348" x2="394" y1="97" y2="97" class="net_12,13,14,15,16,17,18,19,20,21"/>
  <line x1="297" x2="394" y1="117" y2="117" class="net_22,23,24,25,26,27,28,29,30,31"/>
  <line x1="297" x2="394" y1="137" y2="137" class="net_32"/>
  <line x1="40" x2="120" y1="57" y2="57" class="net_2"/>
  <line x1="151" x2="266" y1="77" y2="77" class="net_34"/>
  <line x1="425" x2="507" y1="97" y2="97" class="net_3,4,5,6,7,8"/>
  <line x1="297" x2="338" y1="97" y2="97" class="net_9"/>
  <line x1="338" x2="338" y1="97" y2="32" class="net_9"/>
  <line x1="338" x2="507" y1="32" y2="32" class="net_9"/>
  <line x1="297" x2="338" y1="157" y2="157" class="net_10"/>
  <line x1="338" x2="338" y1="157" y2="162" class="net_10"/>
  <line x1="338" x2="507" y1="162" y2="162" class="net_10"/>
  <line x1="151" x2="222" y1="97" y2="97" class="net_11"/>
  <line x1="222" x2="222" y1="97" y2="227" class="net_11"/>
  <line x1="222" x2="507" y1="227" y2="227" class="net_11"/>
</svg>
